Patient4_TMGait_0pt6_02_right_35_GRF.mot
version=1
nRows=52
nColumns=19
inDegrees=no
endheader
time	F1x	F1y	F1z	M1x	M1y	M1z	F2x	F2y	F2z	M2x	M2y	M2z	EC1x	EC1y	EC1z	EC2x	EC2y	EC2z
42.13	28.3254	745.562	39.6755	-272.5559	-34.1331	778.0352	-9.0719	6.8628	0.40279	2.9241	2.0678	18.3792	-0.0592	0.0182	-0.0073	-0.0462	0.0165	0.9585
42.1419	21.7664	742.5508	43.6558	-271.1225	-38.3605	770.0029	-6.0957	5.683	0.23662	2.4116	1.4418	13.515	-0.0592	0.0182	-0.0073	-0.0462	0.0165	0.9585
42.1539	16.4392	739.7487	47.257	-269.6114	-42.0104	762.4352	-3.6428	4.742	0.08545	2.0001	0.942	9.5167	-0.0592	0.0182	-0.0073	-0.0462	0.0165	0.9585
42.1658	12.6029	737.4886	50.2802	-268.1561	-44.889	755.9108	-1.814	4.0761	-0.036092	1.7075	0.58121	6.5646	-0.0592	0.0182	-0.0073	-0.0462	0.0165	0.9585
42.1777	10.1637	735.9214	52.6755	-266.8382	-46.9849	750.6316	-0.58819	3.6756	-0.1149	1.5277	0.34361	4.6165	-0.0592	0.0182	-0.0073	-0.0462	0.0165	0.9585
42.1896	8.8689	734.9948	54.5055	-265.6711	-48.3993	746.4941	0.13255	3.4721	-0.15805	1.4328	0.21038	3.4732	-0.0592	0.0182	-0.0073	-0.0462	0.0165	0.9585
42.2016	8.4264	734.56	55.8598	-264.6302	-49.2561	743.2416	0.46824	3.3753	-0.17226	1.3846	0.15478	2.8963	-0.0592	0.0182	-0.0073	-0.0462	0.0165	0.9585
42.2135	8.5594	734.4256	56.8405	-263.6714	-49.6779	740.5634	0.52814	3.2718	-0.17108	1.3354	0.15778	2.6209	-0.0592	0.0182	-0.0073	-0.0462	0.0165	0.9585
42.2254	9.092	734.4695	57.5548	-262.7608	-49.7736	738.2188	0.41543	3.0267	-0.15307	1.2276	0.1889	2.3662	-0.0592	0.0182	-0.0073	-0.0462	0.0165	0.9585
42.2374	9.9096	734.6095	58.1024	-261.8739	-49.6399	736.018	0.20049	2.5004	-0.11432	1.0017	0.2209	1.8803	-0.0592	0.0182	-0.0073	-0.0462	0.0165	0.9585
42.2493	10.9501	734.8204	58.5822	-261.0029	-49.3698	733.846	-0.040296	1.5431	-0.059836	0.59878	0.23412	0.91945	-0.0592	0.0182	-0.0073	-0.0462	0.0165	0.9585
42.2612	12.2055	735.1343	59.0578	-260.1582	-49.0151	731.6634	-0.26414	0.046868	0.013574	-0.025028	0.21094	-0.6767	-0.0592	0.0182	-0.0073	-0.0462	0.0165	0.9585
42.2731	13.6823	735.6172	59.5753	-259.3577	-48.6164	729.4876	-0.39607	-2.0553	0.10304	-0.89482	0.1313	-3.0293	-0.0592	0.0182	-0.0073	-0.0462	0.0165	0.9585
42.2851	15.4056	736.3024	60.1491	-258.6059	-48.1808	727.3168	-0.38562	-4.6877	0.21364	-1.9814	-0.027477	-6.0541	-0.0592	0.0182	-0.0073	-0.0462	0.0165	0.9585
42.297	17.4068	737.1383	60.7806	-257.8775	-47.7056	725.1031	-0.13587	-7.6107	0.34104	-3.1823	-0.29716	-9.4768	-0.0592	0.0182	-0.0073	-0.0462	0.0165	0.9585
42.3089	19.7032	737.9279	61.4606	-257.1016	-47.1853	722.6685	0.43089	-10.2625	0.4711	-4.2674	-0.69924	-12.6153	-0.0592	0.0182	-0.0073	-0.0462	0.0165	0.9585
42.3209	22.2727	738.3375	62.1593	-256.1658	-46.6099	719.7247	1.4365	-11.7126	0.58691	-4.85	-1.2584	-14.3631	-0.0592	0.0182	-0.0073	-0.0462	0.0165	0.9585
42.3328	25.0961	737.9259	62.8346	-254.9275	-45.9602	715.8949	2.9439	-10.5284	0.6512	-4.3402	-1.9557	-13.0033	-0.0592	0.0182	-0.0073	-0.0462	0.0165	0.9585
42.3447	28.1328	736.1963	63.4261	-253.2338	-45.2093	710.7552	5.0081	-4.7597	0.61258	-1.9335	-2.7391	-6.2373	-0.0592	0.0182	-0.0073	-0.0462	0.0165	0.9585
42.3566	31.3562	732.6366	63.8758	-250.9351	-44.3241	703.8616	7.5287	8.0284	0.39065	3.3691	-3.4636	8.8281	-0.0592	0.0182	-0.0073	-0.0462	0.0165	0.9585
42.3686	34.7488	726.7359	64.1107	-247.8899	-43.2465	694.7663	10.263	30.4964	-0.11857	12.6595	-3.8856	35.3381	-0.0592	0.0182	-0.0073	-0.0462	0.0165	0.9585
42.3805	38.2708	717.9295	64.0344	-243.9458	-41.902	682.9705	12.6478	65.0828	-1.036	26.9311	-3.6142	76.2037	-0.0592	0.0182	-0.0073	-0.0462	0.0165	0.9585
42.3924	41.8165	705.4826	63.4906	-238.8914	-40.1786	667.8532	13.7835	113.1093	-2.4867	46.7195	-2.1088	133.0092	-0.0592	0.0182	-0.0073	-0.0462	0.0165	0.9585
42.4044	45.1924	688.3767	62.2583	-232.4156	-37.9382	648.5677	12.323	173.5884	-4.5628	71.6048	1.2921	204.6234	-0.0592	0.0182	-0.0073	-0.0462	0.0165	0.9585
42.4163	48.0813	665.3586	60.0809	-224.1219	-35.0525	624.0624	6.9071	241.7989	-7.2446	99.6314	7.0955	285.4617	-0.0592	0.0182	-0.0073	-0.0462	0.0165	0.9585
42.4282	50.1331	635.2261	56.7516	-213.6197	-31.4586	593.3366	-2.4047	308.9991	-10.6449	127.1984	15.3107	365.1554	-0.0592	0.0182	-0.0073	-0.0462	0.0165	0.9585
42.4401	51.0223	597.2494	52.2414	-200.6646	-27.2521	555.803	-13.1737	366.1822	-15.1418	150.5997	25.2316	432.8483	-0.0592	0.0182	-0.0073	-0.0462	0.0165	0.9585
42.4521	50.5259	551.6981	46.7528	-185.316	-22.6958	511.768	-23.1788	409.1181	-20.0318	168.1089	35.0994	483.2773	-0.0592	0.0182	-0.0073	-0.0462	0.0165	0.9585
42.464	48.6572	499.7958	40.768	-167.9297	-18.2069	462.3644	-31.0073	439.0102	-24.6265	180.2416	43.5628	517.6526	-0.0592	0.0182	-0.0073	-0.0462	0.0165	0.9585
42.4759	45.5727	443.4322	34.7815	-149.0786	-14.1527	409.315	-36.0762	460.0435	-28.0754	188.7607	49.4641	540.9012	-0.0592	0.0182	-0.0073	-0.0462	0.0165	0.9585
42.4879	41.4612	384.808	29.153	-129.4533	-10.7693	354.5786	-38.416	476.9483	-30.144	195.635	52.5919	558.6679	-0.0592	0.0182	-0.0073	-0.0462	0.0165	0.9585
42.4998	36.4542	326.2538	24.0619	-109.8026	-8.16	300.2613	-38.5287	493.6461	-30.9319	202.4761	53.3053	575.642	-0.0592	0.0182	-0.0073	-0.0462	0.0165	0.9585
42.5117	30.7244	270.0238	19.5921	-90.8762	-6.3383	248.3552	-37.0429	512.7858	-30.9278	210.3452	52.4501	594.9673	-0.0592	0.0182	-0.0073	-0.0462	0.0165	0.9585
42.5236	24.4916	218.1821	15.7712	-73.3742	-5.2494	200.6934	-34.6605	535.9379	-30.8933	219.8317	51.176	618.54	-0.0592	0.0182	-0.0073	-0.0462	0.0165	0.9585
42.5356	18.1383	172.2487	12.6295	-57.8282	-4.7833	158.5619	-31.9824	563.6194	-31.4572	231.0891	50.4623	647.018	-0.0592	0.0182	-0.0073	-0.0462	0.0165	0.9585
42.5475	12.0424	133.0574	10.1572	-44.5391	-4.7918	122.6648	-29.5579	595.2588	-33.1454	243.839	51.1086	679.8264	-0.0592	0.0182	-0.0073	-0.0462	0.0165	0.9585
42.5594	6.5541	100.6153	8.2983	-33.5343	-5.104	92.9269	-27.8238	629.4646	-35.989	257.4982	53.3285	715.4362	-0.0592	0.0182	-0.0073	-0.0462	0.0165	0.9585
42.5714	1.8551	74.3713	6.8967	-24.6429	-5.52	68.8589	-27.0208	664.5492	-39.8831	271.3801	57.0722	751.9813	-0.0592	0.0182	-0.0073	-0.0462	0.0165	0.9585
42.5833	-1.8765	53.4682	5.8005	-17.5858	-5.8504	49.6586	-27.1787	698.917	-44.3075	284.8575	61.775	787.6998	-0.0592	0.0182	-0.0073	-0.0462	0.0165	0.9585
42.5952	-4.5496	37.046	4.8304	-12.0734	-5.9086	34.5857	-28.1266	730.989	-48.8729	297.313	66.9194	820.8584	-0.0592	0.0182	-0.0073	-0.0462	0.0165	0.9585
42.6071	-6.0332	24.33	3.8962	-7.8416	-5.5807	22.9157	-29.6545	759.1244	-53.1569	308.1052	71.9524	849.674	-0.0592	0.0182	-0.0073	-0.0462	0.0165	0.9585
42.6191	-6.3409	14.7251	2.934	-4.6791	-4.823	14.1319	-31.493	781.7304	-57.0084	316.6072	76.5838	872.4152	-0.0592	0.0182	-0.0073	-0.0462	0.0165	0.9585
42.631	-5.6288	7.7607	2.0003	-2.4163	-3.7479	7.7623	-33.418	797.6876	-60.2166	322.3817	80.4989	887.8769	-0.0592	0.0182	-0.0073	-0.0462	0.0165	0.9585
42.6429	-4.4383	3.1671	1.1775	-0.94102	-2.6075	3.5712	-35.1951	806.5373	-62.7237	325.2631	83.5469	895.5492	-0.0592	0.0182	-0.0073	-0.0462	0.0165	0.9585
42.6549	-3.1303	0.4727	0.56278	-0.088256	-1.6149	1.1059	-36.6463	808.6147	-64.4362	325.4113	85.5722	895.7899	-0.0592	0.0182	-0.0073	-0.0462	0.0165	0.9585
42.6668	-1.9705	-0.7978	0.13093	0.30372	-0.83671	-0.050409	-37.5952	805.0013	-65.3685	323.2875	86.5358	889.7475	-0.0592	0.0182	-0.0073	-0.0462	0.0165	0.9585
42.6787	-1.0337	-1.1433	-0.11124	0.39525	-0.30837	-0.3834	-37.9592	797.3307	-65.585	319.5681	86.487	879.1726	-0.0592	0.0182	-0.0073	-0.0462	0.0165	0.9585
42.6906	-0.36106	-0.92643	-0.23562	0.3031	0.023076	-0.21224	-37.6671	787.3678	-65.2696	314.9772	85.6043	865.9185	-0.0592	0.0182	-0.0073	-0.0462	0.0165	0.9585
42.7026	0.080831	-0.45296	-0.25462	0.12579	0.18428	0.17156	-36.7403	776.7328	-64.616	310.1735	84.1075	851.7068	-0.0592	0.0182	-0.0073	-0.0462	0.0165	0.9585
42.7145	0.3202	0.098375	-0.23305	-0.077038	0.24775	0.63493	-35.2131	766.7037	-63.7924	305.6768	82.1959	837.8789	-0.0592	0.0182	-0.0073	-0.0462	0.0165	0.9585
42.7264	0.42617	0.6186	-0.17566	-0.26753	0.2407	1.0743	-33.1898	758.2045	-62.9217	301.8578	80.0347	825.4196	-0.0592	0.0182	-0.0073	-0.0462	0.0165	0.9585
42.7384	0.43018	1.0629	-0.11615	-0.43038	0.19993	1.4588	-30.7685	751.7553	-62.0568	298.9254	77.7182	814.8755	-0.0592	0.0182	-0.0073	-0.0462	0.0165	0.9585
